# xmcd
#
# Track frame offsets:
#	150
#	14692
#	39494
#	54050
#	77377
#	91917
#	106568
#	116214
#	129718
#	153909
#	171879
#	194043
#	209419
#	223305
#	240039
#	255497
#
# Disc length: 3651 seconds
#
# Revision: 1
# Processed by: cddbd v1.5.2PL0 Copyright (c) Steve Scherf et al.
# Submitted via: EasyCDDAExtractor 12.0.4.1
#
DISCID=cf0e4110
DTITLE=Various Artist - Blues-Rock Crossroads - 1964-1986
DYEAR=2011
DGENRE=Blues
TTITLE0=Traffic - Who Knows What Tomorrow May Bring
TTITLE1=Van Morrison - The Back Room
TTITLE2=The Animals - We Gotta Get Out of This Place
TTITLE3=Blodwyn Pig - Dear Jill
TTITLE4=Bonnie Raitt - Love Me Like a Man
TTITLE5=John Mayall and The Bluesbreakers - Hideway
TTITLE6=Rod Stewart - Good Morning Little Schoolgirl
TTITLE7=The Allman Brothers Band - Midnight Rider
TTITLE8=Stevie Ray Vaughan and Double Trouble - Texas Flood
TTITLE9=The Robert Cray Band - Smoking Gun
TTITLE10=Fleetwood Mac - Madison Blues
TTITLE11=Janis Joplin - Get It While You Can
TTITLE12=The Electric Flag - Groovin' Is Easy
TTITLE13=Spooky Tooth - Waitin' for the Wind
TTITLE14=Savoy Brown - I'm Tired
TTITLE15=Procol Harum - A Whiter Shade of Pale
EXTD=
EXTT0=
EXTT1=
EXTT2=
EXTT3=
EXTT4=
EXTT5=
EXTT6=
EXTT7=
EXTT8=
EXTT9=
EXTT10=
EXTT11=
EXTT12=
EXTT13=
EXTT14=
EXTT15=
PLAYORDER=
